<?xml version="1.0" encoding="iso-8859-1"?>
<!-- Generator: Adobe Illustrator 18.1.1, SVG Export Plug-In . SVG Version: 6.00 Build 0)  -->
<svg version="1.1" id="Capa_1" xmlns="http://www.w3.org/2000/svg" xmlns:xlink="http://www.w3.org/1999/xlink" x="0px" y="0px"
	 viewBox="0 0 61.421 61.421" style="enable-background:new 0 0 61.421 61.421;" xml:space="preserve">
<g>
	<g>
		<path style="fill:#010002;" d="M46.897,21.406c-0.328,0-0.66,0.035-0.996,0.105l-22.565,4.732
			c-1.507,0.316-2.576,1.237-3.019,2.505l-18.82,6.063c-1.135,0.367-1.758,1.582-1.393,2.715c0.365,1.134,1.581,1.757,2.713,1.392
			l0.315-0.103c-0.689,0.617-0.933,1.63-0.521,2.511c0.504,1.08,1.788,1.545,2.865,1.041l17.086-7.986
			c0.571,0.303,1.229,0.484,1.969,0.484c0.325,0,0.66-0.035,0.994-0.104l11.322-2.374c-0.163,0.585-0.127,1.224,0.151,1.799
			l3.134,6.504c0.44,0.915,1.354,1.449,2.308,1.449c0.373,0,0.752-0.082,1.11-0.255c1.272-0.613,1.808-2.146,1.194-3.417
			l-2.283-4.737c1.539-1.284,3.445-2.748,4.839-3.534l0.791-0.167c2.187-0.458,3.449-2.188,3.22-4.404
			C51.102,23.578,49.481,21.406,46.897,21.406z"/>
		<circle style="fill:#010002;" cx="56.881" cy="23.392" r="4.54"/>
	</g>
</g>
<g>
</g>
<g>
</g>
<g>
</g>
<g>
</g>
<g>
</g>
<g>
</g>
<g>
</g>
<g>
</g>
<g>
</g>
<g>
</g>
<g>
</g>
<g>
</g>
<g>
</g>
<g>
</g>
<g>
</g>
</svg>
